<?xml version="1.0" encoding="UTF-8" standalone="no"?>
<!-- Created with Inkscape (http://www.inkscape.org/) -->
<svg
   xmlns:svg="http://www.w3.org/2000/svg"
   xmlns="http://www.w3.org/2000/svg"
   version="1.0"
   width="1133.8583"
   height="453.89761"
   id="svg2">
  <defs
     id="defs4" />
  <g
     transform="translate(224.86482,-17.553735)"
     id="layer1">
    <g
       id="g2500">
      <path
         d="M 324.375,35.53125 L 35.4375,129.40625 L 129.34375,418.375 L 383.25,335.84375 L 361.09375,267.5625 L 279.84375,267.5625 L 269.6875,299.03125 L 230.90625,299.03125 L 297.40625,94.65625 L 343.53125,94.65625 L 324.375,35.53125 z M 320.5,142.9375 L 290.9375,233.71875 L 350,233.71875 L 320.5,142.9375 z"
         transform="translate(-224.86482,17.553735)"
         id="path2436"
         style="fill:#1477c6;fill-opacity:1;fill-rule:nonzero;stroke:none" />
      <path
         d="M 443.87208,181.70038 C 439.75777,165.33957 427.41484,142.65729 395.03607,142.65729 C 356.10012,142.65729 339.91074,178.82893 339.91074,214.37915 C 339.91074,249.98293 356.10012,286.16529 395.03607,286.16529 C 421.09337,286.16529 444.68637,266.92232 444.68637,238.78644 L 396.41822,238.78644 L 396.41822,204.90766 L 478.14729,204.90766 L 478.14729,316.59405 L 446.33638,316.59405 L 446.33638,299.06537 C 433.44702,314.29046 412.03975,321.73693 395.03607,321.73693 C 332.50713,321.73693 301.51051,272.08664 301.51051,214.37915 C 301.51051,156.71452 336.62144,107.0535 395.03607,107.0535 C 434.81845,107.0535 463.34005,128.01077 478.14729,167.05386 L 443.87208,181.70038"
         id="path2444"
         style="fill:#000000;fill-opacity:1;fill-rule:nonzero;stroke:none" />
      <path
         d="M 540.64409,214.37914 C 540.64409,249.98293 557.17633,286.16528 596.84086,286.16528 C 636.61252,286.16528 653.14477,249.98293 653.14477,214.37914 C 653.14477,178.82893 636.61252,142.65728 596.84086,142.65728 C 557.17633,142.65728 540.64409,178.82893 540.64409,214.37914 z M 692.33786,214.37914 C 692.33786,272.08663 656.50907,321.73693 596.84086,321.73693 C 537.27978,321.73693 501.44028,272.08663 501.44028,214.37914 C 501.44028,156.71451 537.27978,107.0535 596.84086,107.0535 C 656.50907,107.0535 692.33786,156.71451 692.33786,214.37914"
         id="path2448"
         style="fill:#000000;fill-opacity:1;fill-rule:nonzero;stroke:none" />
      <path
         d="M 298.00692,280.99026 L 188.52769,280.99026 L 188.52769,228.16851 L 265.74601,228.16851 L 265.74601,194.28974 L 188.52769,194.28974 L 188.52769,147.8216 L 290.58188,147.8216 L 290.58188,112.21782 L 150.07389,112.21782 L 150.07389,208.73268 L 185.10981,316.59405 L 298.00692,316.59405 L 298.00692,280.99026"
         id="path2452"
         style="fill:#000000;fill-opacity:1;fill-rule:nonzero;stroke:none" />
      <path
         d="M 838.54588,112.21782 L 838.54588,250.36865 L 753.38823,112.21782 L 716.80944,112.21782 L 716.80944,316.59405 L 751.82393,316.59405 L 751.82393,176.46106 L 838.25659,316.59405 L 873.56038,316.59405 L 873.56038,112.21782 L 838.54588,112.21782"
         id="path2456"
         style="fill:#000000;fill-opacity:1;fill-rule:nonzero;stroke:none" />
      <path
         d="M 751.82393,365.24791 L 200.9242,365.24791 L 207.71709,386.16232 L 751.82393,386.16232 L 751.82393,365.24791"
         id="path2460"
         style="fill:#000000;fill-opacity:1;fill-rule:nonzero;stroke:none" />
    </g>
  </g>
</svg>
